<svg width="120" height="100" viewBox="0 0 265 100" fill="none" xmlns="http://www.w3.org/2000/svg">
<path d="M8.08 40C7.01333 40 6.02667 39.7333 5.12 39.2C4.21333 38.6667 3.49333 37.9467 2.96 37.04C2.42667 36.1333 2.16 35.1467 2.16 34.08V31.4H8.36V33.76H24.68V28.72H8.08C7.01333 28.72 6.02667 28.4533 5.12 27.92C4.21333 27.3867 3.49333 26.68 2.96 25.8C2.42667 24.8933 2.16 23.8933 2.16 22.8V17.12C2.16 16.0267 2.42667 15.04 2.96 14.16C3.49333 13.2533 4.21333 12.5333 5.12 12C6.02667 11.4667 7.01333 11.2 8.08 11.2H25.04C26.1067 11.2 27.08 11.4667 27.96 12C28.8667 12.5333 29.5867 13.2533 30.12 14.16C30.68 15.04 30.96 16.0267 30.96 17.12V19.8H24.68V17.44H8.36V22.48H25.04C26.1067 22.48 27.08 22.7467 27.96 23.28C28.8667 23.8133 29.5867 24.5333 30.12 25.44C30.68 26.32 30.96 27.3067 30.96 28.4V34.08C30.96 35.1467 30.68 36.1333 30.12 37.04C29.5867 37.9467 28.8667 38.6667 27.96 39.2C27.08 39.7333 26.1067 40 25.04 40H8.08ZM41.205 40C40.1383 40 39.1517 39.7333 38.245 39.2C37.3383 38.6667 36.6183 37.9467 36.085 37.04C35.5517 36.1333 35.285 35.1467 35.285 34.08V11.2H41.485V33.76H57.805V11.2H64.085V34.08C64.085 35.1467 63.805 36.1333 63.245 37.04C62.7117 37.9467 61.9917 38.6667 61.085 39.2C60.205 39.7333 59.2317 40 58.165 40H41.205ZM68.53 40V11.2H74.77V22.48H80.41L89.85 11.2H96.33V13.36L86.05 25.6L96.33 37.84V40H89.85L80.41 28.72H74.77V40H68.53ZM100.365 40V11.2H106.765L116.525 22.84L126.245 11.2H132.685V40H126.445V20.68L116.525 32.52L106.565 20.72V40H100.365ZM137.554 40V17.12C137.554 16.0267 137.821 15.04 138.354 14.16C138.888 13.2533 139.608 12.5333 140.514 12C141.421 11.4667 142.408 11.2 143.474 11.2H160.394C161.488 11.2 162.474 11.4667 163.354 12C164.261 12.5333 164.981 13.2533 165.514 14.16C166.074 15.04 166.354 16.0267 166.354 17.12V40H160.074V30.72H143.754V40H137.554ZM143.754 24.48H160.074V17.44H143.754V24.48ZM189.723 40C188.656 40 187.669 39.7333 186.763 39.2C185.856 38.6667 185.136 37.9467 184.603 37.04C184.069 36.1333 183.803 35.1467 183.803 34.08V17.12C183.803 16.0267 184.069 15.04 184.603 14.16C185.136 13.2533 185.856 12.5333 186.763 12C187.669 11.4667 188.656 11.2 189.723 11.2H206.643C207.736 11.2 208.723 11.4667 209.603 12C210.509 12.5333 211.229 13.2533 211.763 14.16C212.323 15.04 212.603 16.0267 212.603 17.12V19.84H206.323V17.44H190.003V33.76H206.323V29.44H200.083V23.2H212.603V34.08C212.603 35.1467 212.323 36.1333 211.763 37.04C211.229 37.9467 210.509 38.6667 209.603 39.2C208.723 39.7333 207.736 40 206.643 40H189.723ZM216.006 40V11.2H222.126V40H216.006ZM247.92 40L239.56 30.04H247.68L254.32 37.88V40H247.92ZM225.56 40V11.24H248.4C249.494 11.24 250.48 11.5067 251.36 12.04C252.267 12.5733 252.987 13.2933 253.52 14.2C254.08 15.1067 254.36 16.0933 254.36 17.16V24.6C254.36 25.6667 254.08 26.6533 253.52 27.56C252.987 28.4667 252.267 29.1867 251.36 29.72C250.48 30.2533 249.494 30.52 248.4 30.52L231.76 30.56V40H225.56ZM231.76 24.28H248.08V17.44H231.76V24.28ZM257.568 40V11.2H263.688V40H257.568Z" fill="url(#paint0_linear_304_7)"/>
<path d="M2.24 90V61.24H25.08C26.1733 61.24 27.16 61.5067 28.04 62.04C28.9467 62.5733 29.6667 63.2933 30.2 64.2C30.76 65.1067 31.04 66.0933 31.04 67.16V74.6C31.04 75.6667 30.76 76.6533 30.2 77.56C29.6667 78.4667 28.9467 79.1867 28.04 79.72C27.16 80.2533 26.1733 80.52 25.08 80.52L8.44 80.56V90H2.24ZM8.44 74.28H24.76V67.44H8.44V74.28ZM61.4406 90L53.0806 80.04H61.2006L67.8406 87.88V90H61.4406ZM39.0806 90V61.24H61.9206C63.014 61.24 64.0006 61.5067 64.8806 62.04C65.7873 62.5733 66.5073 63.2933 67.0406 64.2C67.6006 65.1067 67.8806 66.0933 67.8806 67.16V74.6C67.8806 75.6667 67.6006 76.6533 67.0406 77.56C66.5073 78.4667 65.7873 79.1867 64.8806 79.72C64.0006 80.2533 63.014 80.52 61.9206 80.52L45.2806 80.56V90H39.0806ZM45.2806 74.28H61.6006V67.44H45.2806V74.28ZM77.3684 90V67.12C77.3684 66.0267 77.6351 65.04 78.1684 64.16C78.7018 63.2533 79.4218 62.5333 80.3284 62C81.2351 61.4667 82.2218 61.2 83.2884 61.2H100.208C101.302 61.2 102.288 61.4667 103.168 62C104.075 62.5333 104.795 63.2533 105.328 64.16C105.888 65.04 106.168 66.0267 106.168 67.12V90H99.8884V80.72H83.5684V90H77.3684ZM83.5684 74.48H99.8884V67.44H83.5684V74.48ZM125.766 90V67.44H114.486V61.2H143.286V67.44H132.006V90H125.766ZM151.558 90V67.12C151.558 66.0267 151.824 65.04 152.358 64.16C152.891 63.2533 153.611 62.5333 154.518 62C155.424 61.4667 156.411 61.2 157.478 61.2H174.398C175.491 61.2 176.478 61.4667 177.358 62C178.264 62.5333 178.984 63.2533 179.518 64.16C180.078 65.04 180.358 66.0267 180.358 67.12V90H174.078V80.72H157.758V90H151.558ZM157.758 74.48H174.078V67.44H157.758V74.48ZM190.115 90V61.2H196.515L206.275 72.84L215.995 61.2H222.435V90H216.195V70.68L206.275 82.52L196.315 70.72V90H190.115ZM232.504 90V67.12C232.504 66.0267 232.771 65.04 233.304 64.16C233.838 63.2533 234.558 62.5333 235.464 62C236.371 61.4667 237.358 61.2 238.424 61.2H255.344C256.438 61.2 257.424 61.4667 258.304 62C259.211 62.5333 259.931 63.2533 260.464 64.16C261.024 65.04 261.304 66.0267 261.304 67.12V90H255.024V80.72H238.704V90H232.504ZM238.704 74.48H255.024V67.44H238.704V74.48Z" fill="#DCCDC3"/>
<defs>
<linearGradient id="paint0_linear_304_7" x1="24.388" y1="15.3061" x2="447.112" y2="39.5445" gradientUnits="userSpaceOnUse">
<stop stop-color="#719192"/>
<stop offset="1" stop-color="#DFCDC3" stop-opacity="40"/>
</linearGradient>
</defs>
</svg>
